<?xml version="1.0" encoding="UTF-8" standalone="no"?>
<svg
   xmlns:dc="http://purl.org/dc/elements/1.1/"
   xmlns:cc="http://creativecommons.org/ns#"
   xmlns:rdf="http://www.w3.org/1999/02/22-rdf-syntax-ns#"
   xmlns:svg="http://www.w3.org/2000/svg"
   xmlns="http://www.w3.org/2000/svg"
   xmlns:sodipodi="http://sodipodi.sourceforge.net/DTD/sodipodi-0.dtd"
   xmlns:inkscape="http://www.inkscape.org/namespaces/inkscape"
   sodipodi:docname="example-img.svg"
   inkscape:version="1.0 (4035a4fb49, 2020-05-01)"
   id="svg8"
   version="1.1"
   viewBox="0 0 185.20833 185.20834"
   height="700"
   width="700">
  <defs
     id="defs2">
    <inkscape:path-effect
       live_update="true"
       perimetral="false"
       vertical_mirror="false"
       horizontal_mirror="false"
       lpeversion="1"
       is_visible="true"
       id="path-effect1031"
       gridpoint32x33x34x35="91.848221,92.213939"
       gridpoint29x31="135.88245,92.213939"
       gridpoint28x30="47.813992,92.213939"
       gridpoint25x27="179.91668,92.213939"
       gridpoint24x26="3.7797621,92.213939"
       gridpoint22x23="177.64882,156.12144"
       gridpoint20x21="29.48215,9.785608"
       gridpoint19="146.84376,149.69584"
       gridpoint18="85.989587,131.55298"
       gridpoint17="102.99852,54.764775"
       gridpoint16="-8.882437,69.505846"
       gridpoint15="179.91668,136.46667"
       gridpoint14="17.008929,127.39525"
       gridpoint13="167.44347,49.473108"
       gridpoint12="3.7797621,47.961203"
       gridpoint10x11="91.848221,180.71941"
       gridpoint8x9="91.848221,3.7084677"
       gridpoint7="135.88245,180.71941"
       gridpoint6="48.191968,170.89203"
       gridpoint5="137.01638,10.512039"
       gridpoint4="47.813992,3.7084677"
       gridpoint3="179.91668,180.71941"
       gridpoint2="3.7797621,180.71941"
       gridpoint1="179.91668,3.7084677"
       gridpoint0="3.7797621,3.7084677"
       effect="lattice2" />
  </defs>
  <sodipodi:namedview
     inkscape:window-maximized="1"
     inkscape:window-y="-8"
     inkscape:window-x="-8"
     inkscape:window-height="1017"
     inkscape:window-width="1920"
     inkscape:snap-nodes="false"
     units="px"
     showgrid="false"
     inkscape:document-rotation="0"
     inkscape:current-layer="layer1"
     inkscape:document-units="mm"
     inkscape:cy="337.44031"
     inkscape:cx="49.734851"
     inkscape:zoom="0.7"
     inkscape:pageshadow="2"
     inkscape:pageopacity="0.0"
     borderopacity="1.0"
     bordercolor="#666666"
     pagecolor="#ffffff"
     id="base" />
  <metadata
     id="metadata5">
    <rdf:RDF>
      <cc:Work
         rdf:about="">
        <dc:format>image/svg+xml</dc:format>
        <dc:type
           rdf:resource="http://purl.org/dc/dcmitype/StillImage" />
        <dc:title></dc:title>
      </cc:Work>
    </rdf:RDF>
  </metadata>
  <g
     id="layer1"
     inkscape:groupmode="layer"
     inkscape:label="Layer 1">
    <g
       inkscape:path-effect="#path-effect1031"
       id="g1029">
      <path
         inkscape:original-d="M 3.7797621,3.7084677 V 180.71941"
         style="fill:none;stroke:#000000;stroke-width:0.985587;stroke-linecap:round;stroke-linejoin:miter;stroke-miterlimit:4;stroke-dasharray:none;stroke-opacity:1"
         d="m 3.7797621,3.7084677 c 0.00272,16.0713383 1.2454739,31.0300583 3.281832,50.3109733 1.9811807,18.758479 4.0255839,36.128717 4.4735429,55.013619 0.448955,18.92689 -0.875581,34.83169 -3.1632752,49.18088 -2.1556683,13.52108 -4.5920997,22.50547 -4.5920997,22.50547"
         id="path833" />
      <path
         inkscape:original-d="M 8.5402186,3.7084677 V 180.71941"
         id="path835"
         d="M 8.5434422,3.7278094 C 6.0834365,20.054562 6.4434647,35.886 8.8943065,54.815275 11.225328,72.819105 15.014386,91.2746 16.542255,109.05789 c 1.606298,18.69616 0.634011,34.00723 -2.098111,48.34005 -2.549081,13.37259 -5.865242,22.3157 -5.865242,22.3157"
         style="fill:none;stroke:#000000;stroke-width:0.985587;stroke-linecap:round;stroke-linejoin:miter;stroke-miterlimit:4;stroke-dasharray:none;stroke-opacity:1" />
      <path
         inkscape:original-d="M 13.300676,3.7084677 V 180.71941"
         id="path837"
         d="M 13.313212,3.7836853 C 8.138005,20.269373 7.5477747,36.371506 10.605852,55.234864 c 2.918618,18.003122 8.674303,36.314949 11.4468,53.894796 2.926181,18.55432 2.246928,33.487 -1.113651,47.69179 -3.121559,13.19449 -7.565197,21.99663 -7.565197,21.99663"
         style="fill:none;stroke:#000000;stroke-width:0.985587;stroke-linecap:round;stroke-linejoin:miter;stroke-miterlimit:4;stroke-dasharray:none;stroke-opacity:1" />
      <path
         inkscape:original-d="M 18.061133,3.7084677 V 180.71941"
         style="fill:none;stroke:#000000;stroke-width:0.985587;stroke-linecap:round;stroke-linejoin:miter;stroke-miterlimit:4;stroke-dasharray:none;stroke-opacity:1"
         d="m 18.088534,3.872872 c -8.088057,16.40401 -9.6467153,32.58166 -5.842623,51.464746 3.635404,18.045735 11.598321,36.400834 15.725163,53.910662 4.364454,18.518 3.933383,33.19982 -0.204993,47.21091 -3.838086,12.9944 -9.601434,21.56886 -9.601434,21.56886"
         id="path839" />
      <path
         inkscape:original-d="M 22.821591,3.7084677 V 180.71941"
         id="path841"
         d="M 22.868871,3.9921457 C 11.736336,20.09298 9.2081818,36.22464 13.861022,55.179354 c 4.449274,18.125427 14.791212,36.681285 20.347056,54.233946 5.882277,18.58396 5.662886,33.09732 0.632516,46.87363 -4.666176,12.77892 -11.888984,21.05198 -11.888984,21.05198"
         style="fill:none;stroke:#000000;stroke-width:0.985587;stroke-linecap:round;stroke-linejoin:miter;stroke-miterlimit:4;stroke-dasharray:none;stroke-opacity:1" />
      <path
         inkscape:original-d="M 27.582048,3.7084677 V 180.71941"
         style="fill:none;stroke:#000000;stroke-width:0.985587;stroke-linecap:round;stroke-linejoin:miter;stroke-miterlimit:4;stroke-dasharray:none;stroke-opacity:1"
         d="M 27.653684,4.1382829 C 13.408314,19.750274 9.9223333,35.748006 15.494578,54.812293 c 5.330227,18.236276 18.158686,37.122613 25.185448,54.811557 7.444403,18.74031 7.405961,33.14292 1.403271,46.6577 -5.575575,12.55316 -14.348426,20.46446 -14.348426,20.46446"
         id="path843" />
      <path
         inkscape:original-d="M 32.342505,3.7084677 V 180.71941"
         style="fill:none;stroke:#000000;stroke-width:0.985587;stroke-linecap:round;stroke-linejoin:miter;stroke-miterlimit:4;stroke-dasharray:none;stroke-opacity:1"
         d="M 32.442437,4.3080599 C 15.075031,19.283442 10.653983,35.082055 17.18683,54.285064 c 6.250368,18.372675 21.613091,37.693128 30.122262,55.593636 4.327423,9.10347 6.799145,17.3856 7.071424,25.42207 0.27071,7.99015 -1.681791,14.94222 -4.960005,21.12019 -6.537786,12.3208 -16.905901,19.82372 -16.905901,19.82372"
         id="path845" />
      <path
         inkscape:original-d="M 37.102964,3.7084677 V 180.71941"
         id="path847"
         d="M 37.234595,4.4982531 C 27.457897,11.302299 20.701942,18.758084 17.622965,27.144382 c -3.082694,8.39642 -2.281194,17.127477 1.351922,26.49832 7.183904,18.529335 25.073407,38.363148 35.048377,56.533488 5.073307,9.24151 7.997652,17.59411 8.369556,25.62232 0.369746,7.98163 -1.846248,14.84399 -5.608709,20.88562 -7.52564,12.08443 -19.493103,19.14613 -19.493103,19.14613"
         style="fill:none;stroke:#000000;stroke-width:0.985587;stroke-linecap:round;stroke-linejoin:miter;stroke-miterlimit:4;stroke-dasharray:none;stroke-opacity:1" />
      <path
         inkscape:original-d="M 41.863421,3.7084677 V 180.71941"
         id="path849"
         d="m 42.029616,4.705639 c -11.202753,6.410483 -18.963108,13.57963 -22.529414,21.80889 -3.570623,8.239221 -2.707416,16.95455 1.39251,26.412119 8.107146,18.701287 28.465245,39.104994 39.863615,57.587682 5.797568,9.40087 9.158084,17.84154 9.620056,25.87212 0.459286,7.98386 -2.021863,14.76056 -6.264862,20.66467 -8.513129,11.84598 -22.047281,18.44699 -22.047281,18.44699"
         style="fill:none;stroke:#000000;stroke-width:0.985587;stroke-linecap:round;stroke-linejoin:miter;stroke-miterlimit:4;stroke-dasharray:none;stroke-opacity:1" />
      <path
         inkscape:original-d="M 46.623879,3.7084677 V 180.71941"
         style="fill:none;stroke:#000000;stroke-width:0.985587;stroke-linecap:round;stroke-linejoin:miter;stroke-miterlimit:4;stroke-dasharray:none;stroke-opacity:1"
         d="M 46.826967,4.9269938 C 34.26614,10.922685 25.551141,17.789359 21.524558,25.852998 c -4.031494,8.073472 -3.104052,16.772017 1.44657,26.321752 8.998508,18.883875 31.720854,39.892988 44.476761,58.71592 6.488279,9.57427 10.262562,18.11494 10.805985,26.15579 0.540265,7.9941 -2.199963,14.68914 -6.908144,20.45658 -9.475549,11.60738 -24.511241,17.74052 -24.511241,17.74052"
         id="path851" />
      <path
         inkscape:original-d="M 51.384337,3.7084677 V 180.71941"
         style="fill:none;stroke:#000000;stroke-width:0.985587;stroke-linecap:round;stroke-linejoin:miter;stroke-miterlimit:4;stroke-dasharray:none;stroke-opacity:1"
         d="M 51.626108,5.159094 C 37.79492,10.733086 28.187893,17.292335 23.732743,25.188196 c -4.460637,7.905584 -3.47028,16.587942 1.505069,26.233066 9.838511,19.072764 34.779116,40.703458 48.805547,59.881168 7.134696,9.75495 11.294978,18.40238 11.9121,26.45893 0.613541,8.00979 -2.372694,14.62721 -7.520184,20.26069 -10.389835,11.37078 -26.833344,17.03992 -26.833344,17.03992"
         id="path853" />
      <path
         inkscape:original-d="M 56.144792,3.7084677 V 180.71941"
         id="path855"
         d="M 56.4265,5.3987159 C 41.430225,10.557105 31.005242,16.813832 26.157373,24.545575 c -4.853902,7.741366 -3.805393,16.409582 1.559924,26.151268 10.609779,19.263936 37.585546,41.514736 52.776657,61.049567 7.727255,9.93677 12.240996,18.69309 12.924851,26.76848 0.679896,8.02865 -2.533026,14.57255 -8.084557,20.07652 -11.234955,11.1387 -28.967504,16.35725 -28.967504,16.35725"
         style="fill:none;stroke:#000000;stroke-width:0.985587;stroke-linecap:round;stroke-linejoin:miter;stroke-miterlimit:4;stroke-dasharray:none;stroke-opacity:1" />
      <path
         inkscape:original-d="M 60.905248,3.7084677 V 180.71941"
         style="fill:none;stroke:#000000;stroke-width:0.985587;stroke-linecap:round;stroke-linejoin:miter;stroke-miterlimit:4;stroke-dasharray:none;stroke-opacity:1"
         d="M 61.22761,5.6426359 C 45.186926,10.403209 34.028099,16.371149 28.826974,23.947636 c -5.207661,7.586009 -4.1088,16.243379 1.604004,26.080925 11.297036,19.453688 40.092293,42.307156 56.325731,62.190459 8.257571,10.11418 13.088056,18.97738 13.832391,27.07271 0.74003,8.0486 -2.674753,14.5232 -8.586793,19.90367 C 80.010101,170.10937 61.12911,174.899 61.12911,174.899"
         id="path857" />
      <path
         inkscape:original-d="M 65.665707,3.7084677 V 180.71941"
         id="path859"
         d="M 66.028901,5.8876307 C 49.077725,10.278544 37.277802,15.979246 31.765976,23.413926 c -5.518806,7.444095 -4.380021,16.094976 1.631128,26.025961 11.887117,19.638639 42.258143,43.063058 59.397362,63.276413 8.718434,10.28219 13.825364,19.2466 14.624554,27.36119 0.79458,8.06784 -2.79248,14.47747 -9.01436,19.74192 -12.645395,10.69949 -32.515449,15.0889 -32.515449,15.0889"
         style="fill:none;stroke:#000000;stroke-width:0.985587;stroke-linecap:round;stroke-linejoin:miter;stroke-miterlimit:4;stroke-dasharray:none;stroke-opacity:1" />
      <path
         inkscape:original-d="M 70.426156,3.7084677 V 180.71941"
         id="path861"
         d="M 70.829824,6.1304758 C 53.113156,10.188936 40.772103,15.650753 34.994706,22.961041 c -5.784747,7.319588 -4.618692,15.96921 1.636065,25.989661 12.368954,19.815721 44.048509,43.766782 61.945086,64.283168 9.103823,10.43649 14.443913,19.49322 15.292883,27.62483 0.84407,8.0848 -2.88165,14.43397 -9.35669,19.59115 -13.180913,10.4982 -33.864838,14.5221 -33.864838,14.5221"
         style="fill:none;stroke:#000000;stroke-width:0.985587;stroke-linecap:round;stroke-linejoin:miter;stroke-miterlimit:4;stroke-dasharray:none;stroke-opacity:1" />
      <path
         inkscape:original-d="M 75.186619,3.7084677 V 180.71941"
         style="fill:none;stroke:#000000;stroke-width:0.985587;stroke-linecap:round;stroke-linejoin:miter;stroke-miterlimit:4;stroke-dasharray:none;stroke-opacity:1"
         d="m 75.629866,6.367949 c -18.328247,3.770939 -31.104656,9.028013 -37.100444,16.234674 -6.00342,7.215833 -4.824562,15.870111 1.614536,25.974666 12.733589,19.982187 45.435451,44.404677 63.931412,65.189701 9.40888,10.57332 14.93646,19.71075 15.83061,27.85584 0.889,8.09816 -2.9385,14.39156 -9.60514,19.45139 -13.587768,10.31281 -34.897522,14.01103 -34.897522,14.01103"
         id="path863" />
      <path
         inkscape:original-d="M 79.947078,3.7084677 V 180.71941"
         id="path865"
         d="M 80.428471,6.5968257 C 61.649323,10.131582 48.547722,15.222834 42.382258,22.349363 c -6.173278,7.13556 -4.997493,15.800913 1.563213,25.982979 12.974164,20.135605 46.397648,44.96509 65.327779,65.978168 9.62993,10.68954 15.29753,19.89381 16.23267,28.04777 0.92974,8.10685 -2.96014,14.34937 -9.75306,19.32281 -13.85749,10.14576 -35.595172,13.56248 -35.595172,13.56248"
         style="fill:none;stroke:#000000;stroke-width:0.985587;stroke-linecap:round;stroke-linejoin:miter;stroke-miterlimit:4;stroke-dasharray:none;stroke-opacity:1" />
      <path
         inkscape:original-d="M 84.707532,3.7084677 V 180.71941"
         style="fill:none;stroke:#000000;stroke-width:0.985587;stroke-linecap:round;stroke-linejoin:miter;stroke-miterlimit:4;stroke-dasharray:none;stroke-opacity:1"
         d="M 85.225102,6.8138822 C 66.160328,10.168878 52.846674,15.136995 46.561264,22.209 c -6.293296,7.080879 -5.137458,15.764044 1.479721,26.015958 13.085925,20.273863 46.920419,45.438375 66.114585,66.633942 9.76449,10.78263 15.52344,20.03804 16.49569,28.19548 0.9666,8.11006 -2.94445,14.3068 -9.79571,19.20569 -13.98417,9.99917 -35.94505,13.18217 -35.94505,13.18217"
         id="path867" />
      <path
         inkscape:original-d="M 89.46799,3.7084677 V 180.71941"
         style="fill:none;stroke:#000000;stroke-width:0.985587;stroke-linecap:round;stroke-linejoin:miter;stroke-miterlimit:4;stroke-dasharray:none;stroke-opacity:1"
         d="M 90.019228,7.0158954 C 70.836549,10.251316 57.425536,15.14174 51.070409,22.186319 c -6.362977,7.05328 -5.244547,15.761134 1.362629,26.074322 13.066225,20.395164 46.995722,45.816889 66.281202,67.145599 9.81122,10.85068 15.61227,20.14019 16.61797,28.29514 0.99983,8.10723 -2.89015,14.26352 -9.73031,19.10047 -13.96437,9.87477 -35.939956,12.87475 -35.939956,12.87475"
         id="path869" />
      <path
         inkscape:original-d="M 94.228445,3.7084677 V 180.71941"
         id="path871"
         d="M 94.810308,7.1996413 C 75.677727,10.378111 62.284185,15.238029 55.909549,22.283153 c -6.382338,7.053637 -5.318956,15.793009 1.211466,26.15815 12.914516,20.498028 46.622135,46.094991 65.825915,67.504907 9.77,10.89239 15.56387,20.19809 16.59956,28.34427 1.02957,8.09803 -2.7968,14.21948 -9.55604,19.00771 -13.79713,9.77386 -35.578259,12.64382 -35.578259,12.64382"
         style="fill:none;stroke:#000000;stroke-width:0.985587;stroke-linecap:round;stroke-linejoin:miter;stroke-miterlimit:4;stroke-dasharray:none;stroke-opacity:1" />
      <path
         inkscape:original-d="M 98.988901,3.7084677 V 180.71941"
         style="fill:none;stroke:#000000;stroke-width:0.985587;stroke-linecap:round;stroke-linejoin:miter;stroke-miterlimit:4;stroke-dasharray:none;stroke-opacity:1"
         d="M 99.597806,7.3618965 C 80.681454,10.547158 67.418933,15.424488 61.07446,22.498383 c -6.351923,7.082202 -5.361,15.859697 1.026704,26.266876 12.63236,20.581297 45.804896,46.269049 64.755986,67.706871 9.64187,10.90705 15.37988,20.21057 16.44215,28.34166 1.05591,8.08241 -2.66474,14.17488 -9.27401,18.92811 -13.48394,9.69734 -34.863866,12.49191 -34.863866,12.49191"
         id="path873" />
      <path
         inkscape:original-d="M 103.74936,3.7084677 V 180.71941"
         id="path875"
         d="M 104.38119,7.4994375 C 85.843164,10.755029 72.822515,15.697413 66.55682,22.827938 c -6.272797,7.138608 -5.371103,15.960423 0.80977,26.399296 12.223418,20.644127 44.55585,46.337427 63.08764,67.749646 9.42903,10.8946 15.06369,20.17763 16.14915,28.28748 1.07885,8.06056 -2.49518,14.1302 -8.88729,18.8625 -13.02879,9.64564 -33.80627,12.42048 -33.80627,12.42048"
         style="fill:none;stroke:#000000;stroke-width:0.985587;stroke-linecap:round;stroke-linejoin:miter;stroke-miterlimit:4;stroke-dasharray:none;stroke-opacity:1" />
      <path
         inkscape:original-d="M 108.50982,3.7084677 V 180.71941"
         id="path877"
         d="M 109.15992,7.6090404 C 91.156128,10.996972 78.484083,16.050765 72.34421,23.264794 c -6.146547,7.22187 -5.349801,16.093612 0.56304,26.553563 11.693458,20.685991 42.89348,46.3005 60.84603,67.634643 9.13489,10.85556 14.62049,20.10026 15.72566,28.18319 1.09833,8.03291 -2.29012,14.08617 -8.40091,18.81182 -12.43813,9.61876 -32.42046,12.42993 -32.42046,12.42993"
         style="fill:none;stroke:#000000;stroke-width:0.985587;stroke-linecap:round;stroke-linejoin:miter;stroke-miterlimit:4;stroke-dasharray:none;stroke-opacity:1" />
      <path
         inkscape:original-d="M 113.27027,3.7084677 V 180.71941"
         style="fill:none;stroke:#000000;stroke-width:0.985587;stroke-linecap:round;stroke-linejoin:miter;stroke-miterlimit:4;stroke-dasharray:none;stroke-opacity:1"
         d="M 113.93344,7.6874816 C 96.611448,11.266913 84.389202,16.476173 78.420103,23.798972 c -5.975279,7.330382 -5.297746,16.256891 0.289845,26.72719 11.050352,20.706682 40.842922,46.160641 58.065282,67.366458 8.76401,10.79108 14.05723,19.98052 15.17848,28.03155 1.11418,8.00017 -2.05239,14.04381 -7.82182,18.77718 -11.72105,9.61622 -30.72706,12.5196 -30.72706,12.5196"
         id="path879" />
      <path
         inkscape:original-d="M 118.03073,3.7084677 V 180.71941"
         style="fill:none;stroke:#000000;stroke-width:0.985587;stroke-linecap:round;stroke-linejoin:miter;stroke-miterlimit:4;stroke-dasharray:none;stroke-opacity:1"
         d="M 118.70124,7.7315377 C 102.1981,11.557455 90.519903,16.962936 84.76392,24.417546 c -5.761624,7.461917 -5.215702,16.447085 -0.0055,26.917048 10.304071,20.706309 38.43593,45.922231 54.78846,66.952866 8.32214,10.70294 13.38262,19.82161 14.51611,27.8367 1.12616,7.96328 -1.78565,14.00438 -7.15896,18.75982 -10.88929,9.63712 -28.7522,12.68775 -28.7522,12.68775"
         id="path881" />
      <path
         inkscape:original-d="M 122.79119,3.7084677 V 180.71941"
         id="path883"
         d="m 123.46278,7.737985 c -15.55991,4.121892 -26.608177,9.760036 -32.111832,17.366649 -5.50873,7.613629 -5.104546,16.66022 -0.317882,27.119367 9.466694,20.685298 35.710884,45.59165 51.067574,66.404889 7.81623,10.5935 12.60718,19.62768 13.74874,27.60404 1.13398,7.92343 -1.49438,13.96942 -6.42319,18.76108 -9.95741,9.68031 -26.52755,12.9316 -26.52755,12.9316"
         style="fill:none;stroke:#000000;stroke-width:0.985587;stroke-linecap:round;stroke-linejoin:miter;stroke-miterlimit:4;stroke-dasharray:none;stroke-opacity:1" />
      <path
         inkscape:original-d="M 127.55165,3.7084677 V 180.71941"
         id="path885"
         d="M 128.21751,7.7035998 C 113.71039,12.164131 103.36816,18.066064 98.152392,25.841402 92.932123,33.623451 93.187122,42.732925 97.511389,53.171137 106.0638,73.81553 130.22422,98.348423 144.475,118.90787 c 7.25437,10.46579 11.74318,19.40402 12.88825,27.3403 1.13724,7.88211 -1.18387,13.94076 -5.62732,18.78247 -8.94294,9.74452 -24.09038,13.2473 -24.09038,13.2473"
         style="fill:none;stroke:#000000;stroke-width:0.985587;stroke-linecap:round;stroke-linejoin:miter;stroke-miterlimit:4;stroke-dasharray:none;stroke-opacity:1" />
      <path
         inkscape:original-d="M 132.31211,3.7084677 V 180.71941"
         style="fill:none;stroke:#000000;stroke-width:0.985587;stroke-linecap:round;stroke-linejoin:miter;stroke-miterlimit:4;stroke-dasharray:none;stroke-opacity:1"
         d="m 132.96489,7.6251584 c -13.36177,4.8336846 -22.93303,11.0242156 -27.82952,18.9809056 -4.90043,7.963087 -4.79899,17.135423 -0.96778,27.5431 7.5775,20.584656 29.49341,44.689529 42.5465,64.965786 6.64584,10.32345 10.80466,19.15696 11.94822,27.05358 1.1355,7.84103 -0.86025,13.92042 -4.78611,18.82562 -7.86641,9.82876 -21.4835,13.62991 -21.4835,13.62991"
         id="path887" />
      <path
         inkscape:original-d="M 137.07256,3.7084677 V 180.71941"
         id="path889"
         d="m 137.70439,7.4994377 c -12.14302,5.2318733 -20.891,11.7284933 -25.44152,19.8744403 -4.55392,8.152031 -4.6069,17.385554 -1.2901,27.753768 6.56035,20.507468 26.11093,44.140773 37.89512,64.112684 6.00113,10.17075 9.80743,18.89381 10.94392,26.75324 1.12821,7.80216 -0.53045,13.91073 -3.91629,18.89229 -6.75112,9.93288 -18.75526,14.07346 -18.75526,14.07346"
         style="fill:none;stroke:#000000;stroke-width:0.985587;stroke-linecap:round;stroke-linejoin:miter;stroke-miterlimit:4;stroke-dasharray:none;stroke-opacity:1" />
      <path
         inkscape:original-d="M 141.83303,3.7084677 V 180.71941"
         style="fill:none;stroke:#000000;stroke-width:0.985587;stroke-linecap:round;stroke-linejoin:miter;stroke-miterlimit:4;stroke-dasharray:none;stroke-opacity:1"
         d="m 142.43549,7.323213 c -10.87217,5.644293 -18.75854,12.45618 -22.94162,20.793946 -4.18597,8.34354 -4.39037,17.634756 -1.59896,27.955405 5.46825,20.217763 22.75283,43.775522 33.09728,63.201236 5.33187,10.01266 8.76908,18.62295 9.89234,26.44999 1.11475,7.76776 -0.20227,13.91426 -3.03652,18.98437 -5.62253,10.05801 -15.95958,14.57089 -15.95958,14.57089"
         id="path891" />
      <path
         inkscape:original-d="M 146.59348,3.7084677 V 180.71941"
         style="fill:none;stroke:#000000;stroke-width:0.985587;stroke-linecap:round;stroke-linejoin:miter;stroke-miterlimit:4;stroke-dasharray:none;stroke-opacity:1"
         d="M 147.15761,7.0932622 C 127.18719,19.733023 120.21575,35.734481 124.89877,56.946289 c 4.45283,20.169171 19.20362,43.090471 28.24981,62.258461 4.65092,9.85486 7.70896,18.35371 8.81213,26.15585 1.09445,7.74041 0.11573,13.9338 -2.1674,19.10391 -4.50725,10.20659 -13.15595,15.1141 -13.15595,15.1141"
         id="path893" />
      <path
         inkscape:original-d="M 151.35393,3.7084677 V 180.71941"
         id="path895"
         d="m 151.87025,6.806361 c -17.2468,13.475615 -23.54859,29.81922 -19.9242,50.901251 3.45725,20.109857 15.7125,42.392378 23.45842,61.314598 8.29657,20.2674 10.16917,33.71132 6.39215,45.13723 -3.43181,10.38163 -10.40938,15.69389 -10.40938,15.69389"
         style="fill:none;stroke:#000000;stroke-width:0.985587;stroke-linecap:round;stroke-linejoin:miter;stroke-miterlimit:4;stroke-dasharray:none;stroke-opacity:1" />
      <path
         inkscape:original-d="M 156.11438,3.7084677 V 180.71941"
         id="path897"
         d="M 156.57285,6.4592859 C 141.99718,20.71416 136.37461,37.371713 138.99528,58.311726 c 2.50841,20.043029 12.36476,41.701044 18.8378,60.403054 6.92263,20.00098 8.77619,33.37012 6.09564,45.08373 -2.4223,10.58512 -7.79046,16.30006 -7.79046,16.30006"
         style="fill:none;stroke:#000000;stroke-width:0.985587;stroke-linecap:round;stroke-linejoin:miter;stroke-miterlimit:4;stroke-dasharray:none;stroke-opacity:1" />
      <path
         inkscape:original-d="M 160.87485,3.7084677 V 180.71941"
         style="fill:none;stroke:#000000;stroke-width:0.985587;stroke-linecap:round;stroke-linejoin:miter;stroke-miterlimit:4;stroke-dasharray:none;stroke-opacity:1"
         d="M 161.26491,6.0488114 C 149.24529,20.991851 144.29958,37.922478 146.00187,58.710232 c 1.63551,19.972143 9.25214,41.038348 14.51158,59.560478 5.62038,19.79327 7.42718,33.08267 5.75247,45.11768 -1.50512,10.81634 -5.37531,16.92126 -5.37531,16.92126"
         id="path899" />
      <path
         inkscape:original-d="M 165.6353,3.7084677 V 180.71941"
         style="fill:none;stroke:#000000;stroke-width:0.985587;stroke-linecap:round;stroke-linejoin:miter;stroke-miterlimit:4;stroke-dasharray:none;stroke-opacity:1"
         d="m 165.94584,5.5717174 c -9.64571,15.5024336 -13.92977,32.6522466 -13.02783,53.2794136 0.87017,19.900481 6.4728,40.428657 10.61238,58.826699 4.4272,19.67639 6.15365,32.85642 5.3597,45.25896 -0.70873,11.07137 -3.24566,17.54515 -3.24566,17.54515"
         id="path901" />
      <path
         inkscape:original-d="M 170.39575,3.7084677 V 180.71941"
         id="path903"
         d="m 170.61514,5.0247786 c -7.52563,15.8923474 -11.1767,33.1938524 -10.92232,53.6540594 0.24655,19.830295 4.13108,39.899683 7.28173,58.244772 3.38434,19.70572 4.98783,32.67851 4.91412,45.52887 -0.0651,11.34375 -1.48874,18.15828 -1.48874,18.15828"
         style="fill:none;stroke:#000000;stroke-width:0.985587;stroke-linecap:round;stroke-linejoin:miter;stroke-miterlimit:4;stroke-dasharray:none;stroke-opacity:1" />
      <path
         inkscape:original-d="M 175.15622,3.7084677 V 180.71941"
         style="fill:none;stroke:#000000;stroke-width:0.985587;stroke-linecap:round;stroke-linejoin:miter;stroke-miterlimit:4;stroke-dasharray:none;stroke-opacity:1"
         d="m 175.27227,4.4047687 c -5.73578,16.0703993 -8.79635,33.4391603 -8.99999,53.7293983 -0.19833,19.761139 2.33729,39.484157 4.67014,57.860923 2.53937,20.00364 3.96013,32.4722 4.41222,45.95021 0.38997,11.62584 -0.19735,18.74617 -0.19735,18.74617"
         id="path905" />
      <path
         inkscape:original-d="M 179.91668,3.7084677 V 180.71941"
         id="path907"
         d="m 179.91668,3.7084677 c -4.35797,15.9984983 -6.88354,33.3178773 -7.31752,53.4458763 -0.42446,19.686779 1.20751,39.222923 2.93706,57.724616 1.9478,20.83644 3.09779,32.01982 3.85032,46.5472 0.61696,11.9101 0.53014,19.29325 0.53014,19.29325"
         style="fill:none;stroke:#000000;stroke-width:0.985587;stroke-linecap:round;stroke-linejoin:miter;stroke-miterlimit:4;stroke-dasharray:none;stroke-opacity:1" />
    </g>
  </g>
</svg>
